<?xml version="1.0" encoding="utf-8"?>
<!-- Generator: Adobe Illustrator 21.0.0, SVG Export Plug-In . SVG Version: 6.00 Build 0)  -->
<svg version="1.1" xmlns="http://www.w3.org/2000/svg" xmlns:xlink="http://www.w3.org/1999/xlink" x="0px" y="0px"
	 viewBox="0 0 627 375.2" style="enable-background:new 0 0 627 375.2;" xml:space="preserve">
<style type="text/css">
	.st0{fill:#DA251C;}
	.st1{display:none;fill:#7CB737;}
	.st2{clip-path:url(#SVGID_2_);fill:#DA251C;}
	.st3{clip-path:url(#SVGID_2_);}
	.st4{fill:#FFFFFF;}
	.st5{clip-path:url(#SVGID_4_);fill:#FFFFFF;}
	.st6{clip-path:url(#SVGID_4_);}
</style>
<g id="Layer_3">
</g>
<g id="Layer_3_copy">
</g>
<g id="Layer_4">
	<rect class="st1" width="627" height="375"/>
	<g>
		<defs>
			<path id="SVGID_1_" d="M608.3,253.9c-34.8,88.7-195,130.9-357.8,94.3S-16.1,210.1,18.7,121.5s195-130.9,357.8-94.3
				S643.1,165.3,608.3,253.9z"/>
		</defs>
		<clipPath id="SVGID_2_">
			<use xlink:href="#SVGID_1_"  style="overflow:visible;"/>
		</clipPath>
		<path class="st2" d="M608.3,253.9c-34.8,88.7-195,130.9-357.8,94.3C87.7,311.6-16.1,210.1,18.7,121.5
			c34.8-88.7,195-130.9,357.8-94.3C539.3,63.8,643.1,165.3,608.3,253.9z"/>
		<g class="st3">
			<path class="st4" d="M102,243.7c-1.5,6-1,10.2,1.3,12.8c2.3,2.6,6.6,3.9,12.8,3.9c-1.6,6.4-5.3,11.9-11.2,16.7H35.2
				c-3.6-4.7-4.6-10.3-3-16.7c6.2,0,11-1.3,14.4-3.9c3.4-2.6,5.9-6.9,7.4-13.1l21.9-89.5c1.4-5.8,1-9.9-1.1-12.3
				c-2.2-2.5-7.3-3.7-15.3-3.7l3.3-13.6c5.7-3.1,14.9-6.3,27.5-9.7c12.7-3.4,23.1-5.1,31.3-5.1c4.7,0,7.9,1.1,9.4,3.2
				c1.5,2.2,1.7,5.8,0.4,11L102,243.7z M139.9,80c-6.7,5.2-14.6,7.9-23.7,7.9c-8.9,0-15.3-2.6-19.2-7.9c-4-5.2-4.9-12.3-2.7-21.1
				c2.1-8.6,6.6-15.6,13.3-21c6.8-5.3,14.6-8,23.4-8c8.8,0,15.3,2.7,19.3,8c4,5.4,5,12.3,2.9,21C151,67.7,146.6,74.7,139.9,80z"/>
			<path class="st4" d="M187.3,279.9l-5.5,22.5c-1.4,5.6-0.4,9.8,2.9,12.7c3.3,2.9,7.5,4.3,12.7,4.3c-1.5,6.2-5.2,11.6-11.1,16.4
				h-68.2c-3.7-4.9-4.9-10.4-3.4-16.4c6,0,10.2-1.2,12.6-3.7c2.5-2.5,4.5-6.9,6-13.3l36.2-147.9c1.4-5.6,0.8-9.5-1.7-11.9
				c-2.5-2.4-7.6-3.6-15.2-3.6l3.4-13.9c7.5-3.9,16.8-7.4,27.7-10.3c10.9-3,19.2-4.5,24.7-4.5c4.3,0,7.6,0.9,9.9,2.6
				c2.2,1.8,3.4,5,3.5,9.7c10.5-8.2,23.9-12.3,40.4-12.3c11.3,0,21,2.9,29.1,8.6c8.1,5.8,13.5,14.5,16.3,26.1
				c2.8,11.6,2.2,25.8-1.9,42.4c-4.7,19.1-12.5,35.7-23.3,49.7c-10.8,14-23.5,24.7-38.1,32.1c-14.6,7.4-29.6,11.1-45,11.1
				C197.4,280.5,193.4,280.3,187.3,279.9z M251.8,151.4c-4-9.1-11-13.6-21.1-13.6c-3.3,0-6.3,0.6-9.1,1.9l-28.2,115.1
				c3,2.1,6.7,3.1,11,3.1c9.1,0,17.7-5.2,25.9-15.7c8.2-10.5,14.9-26.2,20.1-47.2C255.3,175,255.8,160.5,251.8,151.4z"/>
			<path class="st4" d="M570.4,259.8l-2.2,9c-9.5,6.8-23,10.2-40.5,10.2c-8.6,0-15.1-1.2-19.5-3.5c-4.4-2.4-5.8-6.5-4.3-12.5
				l25.2-102.8c1.6-6.6,1.1-11.7-1.7-15.3c-2.7-3.6-7.1-5.4-13-5.4c-7.4,0-14.4,2.5-21,7.4c0,1-0.3,2.6-0.8,4.6L470,243.7
				c-1.5,6-1.3,10.2,0.6,12.8c1.8,2.6,5.4,3.9,10.8,3.9c-1.5,6.2-5.3,11.7-11.5,16.7h-65.8c-3.5-5.1-4.5-10.7-3-16.7
				c5.1,0,9.2-1.3,12.1-3.9c2.9-2.6,5.1-6.8,6.5-12.8l20.5-83.7c1.6-6.4,0.9-11.4-1.8-15.1c-2.8-3.7-7-5.6-12.5-5.6
				c-4.1,0-8.5,1-13.1,2.9c-4.6,2-8.6,4.6-12.1,7.9l-22.9,93.5c-1.5,6-1.4,10.2,0.1,12.8c1.5,2.6,4.9,3.9,10,3.9
				c-1.6,6.4-5.4,11.9-11.5,16.7h-67c-3.7-4.9-4.8-10.5-3.3-16.7c6.2,0,10.9-1.3,14.2-3.9c3.3-2.6,5.7-6.8,7.2-12.8l22.2-90.4
				c1.4-5.6,0.8-9.5-1.7-11.9c-2.5-2.4-7.6-3.5-15.2-3.5l3.3-13.6c7.5-3.9,17.7-7.4,30.5-10.5c12.8-3.1,22.3-4.6,28.5-4.6
				c4.5,0,7.7,1.4,9.6,4.2c1.9,2.8,2.3,8,1.3,15.6c6.9-6.2,14.8-11,23.9-14.5c9.1-3.5,18.7-5.2,28.8-5.2c20.6,0,32.3,6.9,35.1,20.7
				c7-6.6,15.2-11.7,24.6-15.3c9.4-3.6,19.4-5.4,29.9-5.4c14.6,0,24.7,3.6,30.4,10.8c5.6,7.2,6.8,17.7,3.4,31.5l-22.6,92.3
				C557,252.6,560.8,257.9,570.4,259.8z"/>
		</g>
	</g>
</g>
</svg>
